M48
;DRILL file {Pcbnew (2013-jul-07)-stable} date 2015年01月19日 01時00分25秒
;FORMAT={-:-/ absolute / metric / decimal}
FMAT,2
METRIC,TZ
T1C0.635
T2C0.762
T3C0.813
T4C1.000
T5C1.016
%
G90
G05
M71
T1
X64.2Y-69.6
X66.9Y-69.6
X70.294Y-64.96
X70.294Y-67.501
X70.4Y-73.2
X70.4Y-83.
X71.438Y-64.96
X71.438Y-67.501
X71.564Y-61.341
X72.072Y-62.484
X74.105Y-61.341
X74.612Y-62.484
X76.01Y-70.167
X77.7Y-89.7
X77.7Y-93.8
X78.5Y-61.7
X78.994Y-70.167
X79.8Y-85.7
X80.5Y-89.8
X80.5Y-93.8
X81.4Y-85.7
X83.3Y-63.6
T2
X67.Y-79.46
X67.Y-84.54
T3
X63.Y-49.73
X63.Y-52.27
X63.Y-56.73
X63.Y-59.27
X63.Y-77.73
X63.Y-80.27
X63.Y-83.73
X63.Y-86.27
X63.59Y-92.59
X63.59Y-95.13
X63.59Y-97.67
X63.59Y-100.21
X64.73Y-89.7
X67.27Y-89.7
X69.13Y-89.7
X71.21Y-92.59
X71.21Y-95.13
X71.21Y-97.67
X71.21Y-100.21
X71.67Y-89.7
X75.39Y-89.92
X75.39Y-92.46
X75.39Y-95.
X75.39Y-97.54
X75.39Y-100.08
X81.1Y-65.23
X81.1Y-67.77
X81.5Y-53.73
X81.5Y-56.27
X83.01Y-89.92
X83.01Y-92.46
X83.01Y-95.
X83.01Y-97.54
X83.01Y-100.08
T4
X62.25Y-63.75
X62.25Y-68.25
X62.25Y-70.75
X62.25Y-75.25
X68.75Y-63.75
X68.75Y-68.25
X68.75Y-70.75
X68.75Y-75.25
T5
X71.73Y-86.
X72.96Y-65.23
X72.96Y-67.77
X73.3Y-92.49
X73.3Y-95.03
X73.3Y-97.57
X73.3Y-100.11
X74.27Y-86.
X75.5Y-65.23
X75.5Y-67.77
X78.04Y-65.23
X78.04Y-67.77
X81.2Y-59.53
X81.2Y-62.07
T0
M30
