G04 (created by PCBNEW (2013-07-07 BZR 4022)-stable) date 2015/01/28 12:10:21*
%MOIN*%
G04 Gerber Fmt 3.4, Leading zero omitted, Abs format*
%FSLAX34Y34*%
G01*
G70*
G90*
G04 APERTURE LIST*
%ADD10C,0.00590551*%
%ADD11R,0.0787X0.0177*%
%ADD12R,0.0177X0.0787*%
%ADD13R,0.06X0.06*%
%ADD14C,0.06*%
%ADD15C,0.066*%
%ADD16C,0.056*%
%ADD17R,0.0393701X0.0866142*%
%ADD18R,0.0275591X0.0866142*%
%ADD19R,0.0255906X0.0866142*%
%ADD20R,0.0787402X0.0472441*%
%ADD21R,0.0787402X0.0314961*%
%ADD22R,0.0787402X0.110236*%
%ADD23R,0.0905512X0.0748031*%
%ADD24R,0.055X0.055*%
%ADD25C,0.055*%
%ADD26C,0.0787402*%
%ADD27C,0.244094*%
G04 APERTURE END LIST*
G54D10*
G54D11*
X28222Y-29812D03*
X28222Y-30127D03*
X28222Y-30442D03*
X28222Y-30757D03*
X28222Y-31072D03*
X28222Y-31387D03*
X28222Y-31702D03*
X28222Y-32017D03*
X31988Y-32015D03*
X31988Y-29805D03*
X31988Y-30125D03*
X31988Y-30445D03*
X31988Y-30755D03*
X31988Y-31075D03*
X31988Y-31385D03*
X31988Y-31705D03*
G54D12*
X29006Y-32805D03*
X29320Y-32805D03*
X29636Y-32805D03*
X29950Y-32805D03*
X30266Y-32805D03*
X30580Y-32805D03*
X30896Y-32805D03*
X31210Y-32805D03*
X29008Y-29025D03*
X29318Y-29025D03*
X29638Y-29025D03*
X29948Y-29025D03*
X30258Y-29025D03*
X30578Y-29025D03*
X30898Y-29025D03*
X31218Y-29025D03*
G54D13*
X30724Y-25681D03*
G54D14*
X30724Y-26681D03*
X29724Y-25681D03*
X29724Y-26681D03*
X28724Y-25681D03*
X28724Y-26681D03*
G54D13*
X31968Y-24437D03*
G54D14*
X31968Y-23437D03*
G54D15*
X24803Y-20578D03*
X24803Y-19578D03*
G54D16*
X26377Y-31283D03*
X26377Y-33283D03*
G54D17*
X30334Y-23228D03*
G54D18*
X29724Y-23228D03*
X29291Y-23228D03*
X28858Y-23228D03*
X28425Y-23228D03*
X27992Y-23228D03*
X27559Y-23228D03*
X27125Y-23228D03*
G54D19*
X26692Y-23228D03*
X26318Y-23228D03*
G54D20*
X25748Y-21338D03*
G54D21*
X25748Y-18897D03*
G54D22*
X25748Y-17263D03*
G54D23*
X31456Y-17086D03*
G54D24*
X25035Y-36452D03*
G54D25*
X25035Y-37452D03*
X25035Y-38452D03*
X25035Y-39452D03*
X28035Y-39452D03*
X28035Y-38452D03*
X28035Y-37452D03*
X28035Y-36452D03*
G54D24*
X29681Y-35401D03*
G54D25*
X29681Y-36401D03*
X29681Y-37401D03*
X29681Y-38401D03*
X29681Y-39401D03*
X32681Y-39401D03*
X32681Y-38401D03*
X32681Y-37401D03*
X32681Y-36401D03*
X32681Y-35401D03*
X24803Y-32964D03*
X24803Y-33964D03*
X24803Y-31602D03*
X24803Y-30602D03*
X31929Y-25681D03*
X31929Y-26681D03*
X32086Y-21153D03*
X32086Y-22153D03*
G54D26*
X27066Y-27854D03*
X27066Y-29625D03*
X24507Y-29625D03*
X24507Y-27854D03*
X27066Y-25098D03*
X27066Y-26870D03*
X24507Y-26870D03*
X24507Y-25098D03*
G54D25*
X26484Y-35314D03*
X25484Y-35314D03*
X27216Y-35314D03*
X28216Y-35314D03*
X24803Y-22334D03*
X24803Y-23334D03*
G54D13*
X28858Y-39413D03*
G54D14*
X28858Y-38413D03*
X28858Y-37413D03*
X28858Y-36413D03*
G54D13*
X29240Y-33858D03*
G54D14*
X28240Y-33858D03*
G54D27*
X25196Y-42519D03*
X31889Y-42519D03*
G54D25*
X30393Y-36929D03*
X31751Y-36929D03*
X27795Y-28818D03*
X27795Y-32677D03*
X25196Y-27401D03*
X26377Y-27401D03*
X32795Y-25039D03*
X32047Y-33740D03*
X30150Y-24150D03*
X28681Y-27440D03*
X27795Y-25511D03*
X27834Y-26692D03*
X29400Y-24300D03*
X28200Y-24350D03*
X31350Y-27625D03*
X29700Y-27625D03*
X31181Y-33858D03*
X30905Y-24291D03*
X31692Y-35354D03*
X30433Y-35314D03*
M02*
