G04 (created by PCBNEW (2013-07-07 BZR 4022)-stable) date 2015/01/28 12:10:21*
%MOIN*%
G04 Gerber Fmt 3.4, Leading zero omitted, Abs format*
%FSLAX34Y34*%
G01*
G70*
G90*
G04 APERTURE LIST*
%ADD10C,0.00590551*%
%ADD11R,0.0787X0.0177*%
%ADD12R,0.0177X0.0787*%
%ADD13R,0.06X0.06*%
%ADD14C,0.06*%
%ADD15C,0.066*%
%ADD16C,0.056*%
%ADD17R,0.0393701X0.0866142*%
%ADD18R,0.0275591X0.0866142*%
%ADD19R,0.0255906X0.0866142*%
%ADD20R,0.0787402X0.0472441*%
%ADD21R,0.0787402X0.0314961*%
%ADD22R,0.0787402X0.110236*%
%ADD23R,0.0905512X0.0748031*%
%ADD24R,0.055X0.055*%
%ADD25C,0.055*%
%ADD26C,0.0787402*%
%ADD27C,0.01*%
%ADD28C,0.008*%
%ADD29C,0.016*%
G04 APERTURE END LIST*
G54D10*
G54D11*
X28222Y-29812D03*
X28222Y-30127D03*
X28222Y-30442D03*
X28222Y-30757D03*
X28222Y-31072D03*
X28222Y-31387D03*
X28222Y-31702D03*
X28222Y-32017D03*
X31988Y-32015D03*
X31988Y-29805D03*
X31988Y-30125D03*
X31988Y-30445D03*
X31988Y-30755D03*
X31988Y-31075D03*
X31988Y-31385D03*
X31988Y-31705D03*
G54D12*
X29006Y-32805D03*
X29320Y-32805D03*
X29636Y-32805D03*
X29950Y-32805D03*
X30266Y-32805D03*
X30580Y-32805D03*
X30896Y-32805D03*
X31210Y-32805D03*
X29008Y-29025D03*
X29318Y-29025D03*
X29638Y-29025D03*
X29948Y-29025D03*
X30258Y-29025D03*
X30578Y-29025D03*
X30898Y-29025D03*
X31218Y-29025D03*
G54D13*
X30724Y-25681D03*
G54D14*
X30724Y-26681D03*
X29724Y-25681D03*
X29724Y-26681D03*
X28724Y-25681D03*
X28724Y-26681D03*
G54D13*
X31968Y-24437D03*
G54D14*
X31968Y-23437D03*
G54D15*
X24803Y-20578D03*
X24803Y-19578D03*
G54D16*
X26377Y-31283D03*
X26377Y-33283D03*
G54D17*
X30334Y-23228D03*
G54D18*
X29724Y-23228D03*
X29291Y-23228D03*
X28858Y-23228D03*
X28425Y-23228D03*
X27992Y-23228D03*
X27559Y-23228D03*
X27125Y-23228D03*
G54D19*
X26692Y-23228D03*
X26318Y-23228D03*
G54D20*
X25748Y-21338D03*
G54D21*
X25748Y-18897D03*
G54D22*
X25748Y-17263D03*
G54D23*
X31456Y-17086D03*
G54D24*
X25035Y-36452D03*
G54D25*
X25035Y-37452D03*
X25035Y-38452D03*
X25035Y-39452D03*
X28035Y-39452D03*
X28035Y-38452D03*
X28035Y-37452D03*
X28035Y-36452D03*
G54D24*
X29681Y-35401D03*
G54D25*
X29681Y-36401D03*
X29681Y-37401D03*
X29681Y-38401D03*
X29681Y-39401D03*
X32681Y-39401D03*
X32681Y-38401D03*
X32681Y-37401D03*
X32681Y-36401D03*
X32681Y-35401D03*
X24803Y-32964D03*
X24803Y-33964D03*
X24803Y-31602D03*
X24803Y-30602D03*
X31929Y-25681D03*
X31929Y-26681D03*
X32086Y-21153D03*
X32086Y-22153D03*
G54D26*
X27066Y-27854D03*
X27066Y-29625D03*
X24507Y-29625D03*
X24507Y-27854D03*
X27066Y-25098D03*
X27066Y-26870D03*
X24507Y-26870D03*
X24507Y-25098D03*
G54D25*
X26484Y-35314D03*
X25484Y-35314D03*
X27216Y-35314D03*
X28216Y-35314D03*
X24803Y-22334D03*
X24803Y-23334D03*
G54D13*
X28858Y-39413D03*
G54D14*
X28858Y-38413D03*
X28858Y-37413D03*
X28858Y-36413D03*
G54D13*
X29240Y-33858D03*
G54D14*
X28240Y-33858D03*
G54D25*
X30393Y-36929D03*
X31751Y-36929D03*
X27795Y-28818D03*
X27795Y-32677D03*
X25196Y-27401D03*
X26377Y-27401D03*
X32795Y-25039D03*
X32047Y-33740D03*
X30150Y-24150D03*
X28681Y-27440D03*
X27795Y-25511D03*
X27834Y-26692D03*
X29400Y-24300D03*
X28200Y-24350D03*
X31350Y-27625D03*
X29700Y-27625D03*
X31181Y-33858D03*
X30905Y-24291D03*
X31692Y-35354D03*
X30433Y-35314D03*
G54D27*
X29636Y-32805D02*
X29636Y-33462D01*
X29636Y-33462D02*
X29240Y-33858D01*
X29320Y-32805D02*
X29320Y-33199D01*
X29320Y-33199D02*
X29094Y-33425D01*
X29094Y-33425D02*
X28673Y-33425D01*
X28673Y-33425D02*
X28240Y-33858D01*
X29008Y-29025D02*
X29008Y-28883D01*
X29008Y-28883D02*
X26989Y-26864D01*
X29681Y-37401D02*
X30708Y-37401D01*
X30708Y-37401D02*
X30944Y-37165D01*
X30944Y-37165D02*
X30944Y-34724D01*
X30944Y-34724D02*
X30266Y-34045D01*
X30266Y-34045D02*
X30266Y-32805D01*
X24566Y-35905D02*
X24566Y-36984D01*
X25157Y-35314D02*
X24566Y-35905D01*
X25484Y-35314D02*
X25157Y-35314D01*
X24566Y-36984D02*
X25035Y-37452D01*
X28858Y-37413D02*
X28858Y-37480D01*
X28385Y-37952D02*
X25535Y-37952D01*
X25535Y-37952D02*
X25035Y-37452D01*
X28858Y-37480D02*
X28385Y-37952D01*
X28858Y-37413D02*
X29669Y-37413D01*
X29669Y-37413D02*
X29681Y-37401D01*
X30580Y-32805D02*
X30580Y-34005D01*
X30732Y-38401D02*
X29681Y-38401D01*
X31220Y-37913D02*
X30732Y-38401D01*
X31220Y-34645D02*
X31220Y-37913D01*
X30580Y-34005D02*
X31220Y-34645D01*
X28858Y-38413D02*
X28858Y-38464D01*
X25519Y-38937D02*
X25035Y-38452D01*
X28385Y-38937D02*
X25519Y-38937D01*
X28858Y-38464D02*
X28385Y-38937D01*
X24370Y-35748D02*
X24370Y-37787D01*
X28216Y-35224D02*
X27874Y-34881D01*
X27874Y-34881D02*
X25236Y-34881D01*
X25236Y-34881D02*
X24370Y-35748D01*
X28216Y-35314D02*
X28216Y-35224D01*
X24370Y-37787D02*
X25035Y-38452D01*
X28858Y-38413D02*
X29669Y-38413D01*
G54D28*
X29669Y-38413D02*
X29681Y-38401D01*
G54D27*
X27066Y-29625D02*
X25748Y-30944D01*
X25748Y-30944D02*
X25196Y-30944D01*
X25196Y-30944D02*
X25039Y-31102D01*
X25039Y-31102D02*
X24547Y-31102D01*
X24547Y-31102D02*
X24325Y-31325D01*
X24325Y-31325D02*
X24325Y-33301D01*
X24325Y-33301D02*
X24488Y-33464D01*
X24488Y-33464D02*
X25748Y-33464D01*
X25748Y-33464D02*
X26062Y-33779D01*
X26062Y-33779D02*
X26614Y-33779D01*
X26614Y-33779D02*
X27283Y-33110D01*
X27283Y-33110D02*
X27283Y-32007D01*
X27283Y-32007D02*
X27588Y-31702D01*
X27588Y-31702D02*
X28222Y-31702D01*
G54D29*
X32681Y-36401D02*
X32279Y-36401D01*
X28858Y-36496D02*
X29291Y-36929D01*
X29291Y-36929D02*
X30393Y-36929D01*
X28858Y-36496D02*
X28858Y-36413D01*
X32279Y-36401D02*
X31751Y-36929D01*
X27795Y-32677D02*
X27795Y-32952D01*
X27066Y-27854D02*
X27795Y-28582D01*
X27795Y-28818D02*
X27795Y-28582D01*
X27795Y-32952D02*
X27933Y-33090D01*
X26377Y-27401D02*
X26338Y-27401D01*
X25905Y-27834D02*
X25905Y-28031D01*
X26338Y-27401D02*
X25905Y-27834D01*
X24507Y-25098D02*
X24507Y-25531D01*
X25196Y-26220D02*
X25196Y-27401D01*
X24507Y-25531D02*
X25196Y-26220D01*
X25905Y-30039D02*
X25905Y-30275D01*
X25905Y-30275D02*
X25578Y-30602D01*
X25578Y-30602D02*
X24803Y-30602D01*
X25905Y-28031D02*
X25905Y-30039D01*
X25196Y-27401D02*
X24960Y-27401D01*
X24960Y-27401D02*
X24507Y-27854D01*
X25905Y-27007D02*
X25905Y-28031D01*
X28728Y-26681D02*
X28724Y-26681D01*
X26692Y-26220D02*
X25905Y-27007D01*
X28267Y-26220D02*
X26692Y-26220D01*
X28728Y-26681D02*
X28267Y-26220D01*
X28035Y-36452D02*
X28818Y-36452D01*
X28818Y-36452D02*
X28858Y-36413D01*
X32681Y-34098D02*
X32681Y-33468D01*
X28129Y-32893D02*
X27933Y-33090D01*
X32681Y-33468D02*
X32602Y-33389D01*
X31102Y-31889D02*
X29133Y-31889D01*
X32602Y-33389D02*
X31102Y-31889D01*
X29133Y-31889D02*
X28129Y-32893D01*
X32681Y-35401D02*
X32681Y-34098D01*
X32681Y-34098D02*
X32602Y-34019D01*
X32681Y-36401D02*
X32681Y-35401D01*
G54D27*
X32047Y-33740D02*
X32322Y-33740D01*
G54D29*
X32598Y-24842D02*
X32795Y-25039D01*
X32598Y-23543D02*
X32598Y-24842D01*
X32322Y-33740D02*
X32602Y-34019D01*
X32874Y-26968D02*
X32874Y-26625D01*
X32874Y-26968D02*
X32874Y-30787D01*
X32874Y-30787D02*
X32585Y-31075D01*
X31988Y-31075D02*
X32585Y-31075D01*
X32874Y-26625D02*
X31929Y-25681D01*
X31968Y-24437D02*
X31968Y-24173D01*
X32598Y-21665D02*
X32086Y-21153D01*
X32598Y-23543D02*
X32598Y-21665D01*
X31968Y-24173D02*
X32598Y-23543D01*
X32086Y-21153D02*
X31917Y-21153D01*
X31917Y-21153D02*
X31220Y-21850D01*
X27559Y-22480D02*
X27559Y-23228D01*
X28188Y-21850D02*
X27559Y-22480D01*
X31220Y-21850D02*
X28188Y-21850D01*
X27007Y-34015D02*
X24854Y-34015D01*
X27933Y-33090D02*
X27007Y-34015D01*
X24854Y-34015D02*
X24803Y-33964D01*
X31968Y-24437D02*
X31968Y-25641D01*
X31968Y-25641D02*
X31929Y-25681D01*
X29960Y-30748D02*
X29960Y-30757D01*
X29970Y-30757D02*
X29960Y-30748D01*
X24803Y-19578D02*
X24791Y-19578D01*
X24791Y-19578D02*
X24251Y-20118D01*
X24251Y-20118D02*
X24251Y-24842D01*
X24251Y-24842D02*
X24507Y-25098D01*
X24803Y-30602D02*
X24803Y-30629D01*
X28222Y-31387D02*
X29606Y-31387D01*
X29606Y-31387D02*
X30763Y-31387D01*
X30763Y-31387D02*
X31075Y-31075D01*
X28222Y-30757D02*
X29960Y-30757D01*
X29960Y-30757D02*
X30757Y-30757D01*
X30757Y-30757D02*
X31075Y-31075D01*
X31075Y-31075D02*
X31988Y-31075D01*
G54D27*
X29744Y-23838D02*
X29838Y-23838D01*
X29744Y-23838D02*
X29507Y-23838D01*
X29507Y-23838D02*
X29291Y-23622D01*
X29291Y-23228D02*
X29291Y-23622D01*
X29838Y-23838D02*
X30150Y-24150D01*
X30157Y-28110D02*
X29350Y-28110D01*
X30578Y-29025D02*
X30578Y-28530D01*
X30578Y-28530D02*
X30157Y-28110D01*
X29350Y-28110D02*
X28681Y-27440D01*
G54D28*
X29250Y-23269D02*
X29291Y-23228D01*
G54D27*
X27787Y-27137D02*
X27787Y-26740D01*
X27795Y-25511D02*
X27795Y-24803D01*
X27795Y-24803D02*
X27460Y-24468D01*
X27460Y-24468D02*
X25937Y-24468D01*
X24803Y-23334D02*
X25937Y-24468D01*
X28950Y-28300D02*
X27787Y-27137D01*
X29638Y-28588D02*
X29350Y-28300D01*
X29638Y-28588D02*
X29638Y-29025D01*
X29350Y-28300D02*
X28950Y-28300D01*
X27787Y-26740D02*
X27834Y-26692D01*
X24803Y-20578D02*
X24803Y-22334D01*
X26377Y-31283D02*
X25122Y-31283D01*
X25122Y-31283D02*
X24803Y-31602D01*
X26377Y-31283D02*
X26377Y-31102D01*
X26377Y-31102D02*
X27667Y-29812D01*
X27667Y-29812D02*
X28222Y-29812D01*
X24803Y-32964D02*
X26059Y-32964D01*
X26059Y-32964D02*
X26377Y-33283D01*
X28222Y-30127D02*
X27667Y-30127D01*
X27667Y-30127D02*
X27007Y-30787D01*
X27007Y-30787D02*
X27007Y-32653D01*
X27007Y-32653D02*
X26377Y-33283D01*
X29950Y-32805D02*
X29950Y-34026D01*
X29950Y-34026D02*
X29566Y-34409D01*
X29566Y-34409D02*
X24409Y-34409D01*
X24409Y-34409D02*
X24075Y-34075D01*
X25118Y-30157D02*
X25629Y-29645D01*
X24488Y-30157D02*
X25118Y-30157D01*
X24075Y-30570D02*
X24488Y-30157D01*
X24075Y-34075D02*
X24075Y-30570D01*
X28455Y-25950D02*
X28724Y-25681D01*
X26254Y-25950D02*
X28455Y-25950D01*
X25629Y-26574D02*
X26254Y-25950D01*
X25629Y-29645D02*
X25629Y-26574D01*
X30236Y-26141D02*
X30236Y-25472D01*
X29724Y-26653D02*
X30236Y-26141D01*
X29724Y-26681D02*
X29724Y-26653D01*
X28937Y-24842D02*
X28937Y-23228D01*
X29212Y-25118D02*
X28937Y-24842D01*
X29881Y-25118D02*
X29212Y-25118D01*
X30236Y-25472D02*
X29881Y-25118D01*
X30898Y-29025D02*
X30898Y-28142D01*
X30898Y-28142D02*
X29724Y-26968D01*
X29724Y-26968D02*
X29724Y-26681D01*
X27500Y-24200D02*
X28050Y-24200D01*
X29825Y-24650D02*
X30050Y-24650D01*
X30050Y-24650D02*
X30275Y-24650D01*
X27125Y-23228D02*
X27125Y-23825D01*
X30724Y-25099D02*
X30724Y-25681D01*
X27125Y-23825D02*
X27500Y-24200D01*
X30275Y-24650D02*
X30724Y-25099D01*
X29750Y-24650D02*
X29825Y-24650D01*
X29400Y-24300D02*
X29750Y-24650D01*
X28050Y-24200D02*
X28200Y-24350D01*
X30724Y-25681D02*
X30724Y-25649D01*
X31218Y-29025D02*
X31218Y-28193D01*
X31218Y-28193D02*
X30196Y-27171D01*
X30196Y-27171D02*
X30196Y-26535D01*
X30196Y-26535D02*
X30724Y-26007D01*
X30724Y-26007D02*
X30724Y-25681D01*
X31350Y-27625D02*
X31350Y-27875D01*
X29700Y-27625D02*
X29396Y-27625D01*
X31988Y-29805D02*
X31988Y-28513D01*
X29225Y-27453D02*
X29396Y-27625D01*
X29225Y-26325D02*
X29225Y-27453D01*
X29724Y-25825D02*
X29225Y-26325D01*
X29724Y-25825D02*
X29724Y-25681D01*
X31350Y-27875D02*
X31988Y-28513D01*
X27992Y-23228D02*
X27992Y-23661D01*
X29406Y-25681D02*
X29724Y-25681D01*
X28677Y-24952D02*
X29406Y-25681D01*
X28677Y-23952D02*
X28677Y-24952D01*
X28575Y-23850D02*
X28677Y-23952D01*
X28180Y-23850D02*
X28575Y-23850D01*
X27992Y-23661D02*
X28180Y-23850D01*
G54D28*
X29724Y-25681D02*
X29539Y-25681D01*
G54D29*
X31692Y-35354D02*
X31692Y-34370D01*
X29681Y-35401D02*
X30346Y-35401D01*
X32086Y-22401D02*
X32086Y-22153D01*
X30905Y-23582D02*
X30905Y-24291D01*
X32086Y-22401D02*
X30905Y-23582D01*
X30346Y-35401D02*
X30433Y-35314D01*
X31692Y-34370D02*
X31181Y-33858D01*
X26484Y-35314D02*
X26484Y-35838D01*
X25870Y-36452D02*
X25035Y-36452D01*
X26484Y-35838D02*
X25870Y-36452D01*
X27216Y-35314D02*
X26484Y-35314D01*
X29681Y-35401D02*
X29047Y-35401D01*
X29047Y-35401D02*
X28543Y-35905D01*
X28543Y-35905D02*
X27807Y-35905D01*
X27807Y-35905D02*
X27216Y-35314D01*
X29681Y-36401D02*
X29681Y-35401D01*
X25035Y-39452D02*
X28035Y-39452D01*
X28035Y-39452D02*
X28074Y-39413D01*
X28074Y-39413D02*
X28858Y-39413D01*
X24133Y-37244D02*
X24133Y-38551D01*
X24133Y-38551D02*
X25035Y-39452D01*
X29681Y-35401D02*
X29681Y-35232D01*
X24133Y-35590D02*
X24133Y-37244D01*
X25078Y-34645D02*
X24133Y-35590D01*
X29094Y-34645D02*
X25078Y-34645D01*
X29681Y-35232D02*
X29094Y-34645D01*
X31988Y-30125D02*
X32433Y-30125D01*
X32598Y-27350D02*
X31929Y-26681D01*
X32598Y-29960D02*
X32598Y-27350D01*
X32433Y-30125D02*
X32598Y-29960D01*
X31968Y-23437D02*
X31838Y-23437D01*
X31838Y-23437D02*
X31338Y-23937D01*
X31338Y-23937D02*
X31338Y-26090D01*
X31338Y-26090D02*
X31929Y-26681D01*
X32086Y-22153D02*
X32086Y-23318D01*
X32086Y-23318D02*
X31968Y-23437D01*
X30724Y-26681D02*
X31929Y-26681D01*
X32086Y-22153D02*
X28870Y-22153D01*
X28425Y-22598D02*
X28425Y-23228D01*
X28870Y-22153D02*
X28425Y-22598D01*
X31988Y-30125D02*
X29559Y-30125D01*
X29242Y-30442D02*
X28222Y-30442D01*
X29559Y-30125D02*
X29242Y-30442D01*
X28222Y-30442D02*
X27746Y-30442D01*
X27607Y-31072D02*
X28222Y-31072D01*
X27559Y-31023D02*
X27607Y-31072D01*
X27559Y-30629D02*
X27559Y-31023D01*
X27746Y-30442D02*
X27559Y-30629D01*
G54D10*
G36*
X24879Y-30607D02*
X24808Y-30678D01*
X24803Y-30673D01*
X24797Y-30678D01*
X24726Y-30607D01*
X24732Y-30602D01*
X24726Y-30596D01*
X24797Y-30526D01*
X24803Y-30531D01*
X24808Y-30526D01*
X24879Y-30596D01*
X24873Y-30602D01*
X24879Y-30607D01*
X24879Y-30607D01*
G37*
G54D27*
X24879Y-30607D02*
X24808Y-30678D01*
X24803Y-30673D01*
X24797Y-30678D01*
X24726Y-30607D01*
X24732Y-30602D01*
X24726Y-30596D01*
X24797Y-30526D01*
X24803Y-30531D01*
X24808Y-30526D01*
X24879Y-30596D01*
X24873Y-30602D01*
X24879Y-30607D01*
G54D10*
G36*
X24879Y-33970D02*
X24808Y-34040D01*
X24803Y-34035D01*
X24797Y-34040D01*
X24726Y-33970D01*
X24732Y-33964D01*
X24726Y-33958D01*
X24797Y-33888D01*
X24803Y-33893D01*
X24808Y-33888D01*
X24879Y-33958D01*
X24873Y-33964D01*
X24879Y-33970D01*
X24879Y-33970D01*
G37*
G54D27*
X24879Y-33970D02*
X24808Y-34040D01*
X24803Y-34035D01*
X24797Y-34040D01*
X24726Y-33970D01*
X24732Y-33964D01*
X24726Y-33958D01*
X24797Y-33888D01*
X24803Y-33893D01*
X24808Y-33888D01*
X24879Y-33958D01*
X24873Y-33964D01*
X24879Y-33970D01*
G54D10*
G36*
X27164Y-24218D02*
X26040Y-24218D01*
X25270Y-23448D01*
X25278Y-23429D01*
X25278Y-23240D01*
X25206Y-23065D01*
X25072Y-22932D01*
X24898Y-22859D01*
X24709Y-22859D01*
X24534Y-22931D01*
X24400Y-23065D01*
X24328Y-23239D01*
X24328Y-23428D01*
X24400Y-23603D01*
X24533Y-23737D01*
X24708Y-23809D01*
X24897Y-23809D01*
X24916Y-23801D01*
X25760Y-24645D01*
X25841Y-24699D01*
X25937Y-24718D01*
X26604Y-24718D01*
X26508Y-24754D01*
X26418Y-24994D01*
X26428Y-25250D01*
X26508Y-25442D01*
X26613Y-25481D01*
X26996Y-25098D01*
X26990Y-25092D01*
X27061Y-25022D01*
X27066Y-25027D01*
X27072Y-25022D01*
X27143Y-25092D01*
X27137Y-25098D01*
X27143Y-25103D01*
X27072Y-25174D01*
X27066Y-25169D01*
X26683Y-25552D01*
X26722Y-25657D01*
X26837Y-25700D01*
X26254Y-25700D01*
X26254Y-25700D01*
X26235Y-25703D01*
X26159Y-25719D01*
X26077Y-25773D01*
X26077Y-25773D01*
X25453Y-26398D01*
X25398Y-26479D01*
X25379Y-26574D01*
X25379Y-29542D01*
X25155Y-29766D01*
X25155Y-27958D01*
X25155Y-25202D01*
X25146Y-24946D01*
X25066Y-24754D01*
X24961Y-24715D01*
X24890Y-24786D01*
X24578Y-25098D01*
X24961Y-25481D01*
X25066Y-25442D01*
X25155Y-25202D01*
X25155Y-27958D01*
X25146Y-27702D01*
X25066Y-27510D01*
X24961Y-27471D01*
X24578Y-27854D01*
X24961Y-28237D01*
X25066Y-28198D01*
X25155Y-27958D01*
X25155Y-29766D01*
X25047Y-29874D01*
X25101Y-29744D01*
X25101Y-29508D01*
X25011Y-29290D01*
X24890Y-29169D01*
X24844Y-29122D01*
X24626Y-29032D01*
X24390Y-29032D01*
X24172Y-29122D01*
X24065Y-29228D01*
X24065Y-28338D01*
X24079Y-28353D01*
X24124Y-28308D01*
X24163Y-28413D01*
X24403Y-28502D01*
X24659Y-28492D01*
X24852Y-28413D01*
X24890Y-28308D01*
X24507Y-27925D01*
X24502Y-27930D01*
X24431Y-27859D01*
X24437Y-27854D01*
X24431Y-27848D01*
X24502Y-27778D01*
X24507Y-27783D01*
X24890Y-27400D01*
X24870Y-27346D01*
X25010Y-27206D01*
X25101Y-26988D01*
X25101Y-26752D01*
X25011Y-26534D01*
X24890Y-26413D01*
X24844Y-26367D01*
X24626Y-26276D01*
X24390Y-26276D01*
X24172Y-26366D01*
X24065Y-26472D01*
X24065Y-25583D01*
X24079Y-25597D01*
X24124Y-25552D01*
X24163Y-25657D01*
X24403Y-25746D01*
X24659Y-25736D01*
X24852Y-25657D01*
X24890Y-25552D01*
X24507Y-25169D01*
X24502Y-25174D01*
X24431Y-25103D01*
X24437Y-25098D01*
X24431Y-25092D01*
X24502Y-25022D01*
X24507Y-25027D01*
X24890Y-24644D01*
X24852Y-24539D01*
X24612Y-24450D01*
X24356Y-24459D01*
X24163Y-24539D01*
X24124Y-24644D01*
X24079Y-24599D01*
X24065Y-24613D01*
X24065Y-16979D01*
X25154Y-16979D01*
X25154Y-17854D01*
X25184Y-17928D01*
X25240Y-17984D01*
X25314Y-18014D01*
X25393Y-18014D01*
X25737Y-18014D01*
X25737Y-18540D01*
X25314Y-18540D01*
X25241Y-18570D01*
X25184Y-18626D01*
X25154Y-18700D01*
X25154Y-18779D01*
X25154Y-19094D01*
X25172Y-19138D01*
X25140Y-19171D01*
X25109Y-19072D01*
X24892Y-18994D01*
X24661Y-19004D01*
X24497Y-19072D01*
X24466Y-19171D01*
X24803Y-19508D01*
X24808Y-19502D01*
X24879Y-19573D01*
X24873Y-19578D01*
X25210Y-19915D01*
X25309Y-19884D01*
X25387Y-19667D01*
X25377Y-19437D01*
X25309Y-19272D01*
X25210Y-19241D01*
X25234Y-19218D01*
X25240Y-19224D01*
X25314Y-19255D01*
X25393Y-19255D01*
X25737Y-19255D01*
X25737Y-20902D01*
X25387Y-20902D01*
X25333Y-20902D01*
X25333Y-20473D01*
X25252Y-20278D01*
X25103Y-20129D01*
X25052Y-20108D01*
X25109Y-20084D01*
X25140Y-19986D01*
X24803Y-19649D01*
X24732Y-19720D01*
X24732Y-19578D01*
X24395Y-19241D01*
X24297Y-19272D01*
X24218Y-19489D01*
X24228Y-19720D01*
X24297Y-19884D01*
X24395Y-19915D01*
X24732Y-19578D01*
X24732Y-19720D01*
X24466Y-19986D01*
X24497Y-20084D01*
X24557Y-20106D01*
X24503Y-20129D01*
X24354Y-20278D01*
X24273Y-20472D01*
X24273Y-20683D01*
X24353Y-20878D01*
X24502Y-21027D01*
X24553Y-21048D01*
X24553Y-21923D01*
X24534Y-21931D01*
X24400Y-22065D01*
X24328Y-22239D01*
X24328Y-22428D01*
X24400Y-22603D01*
X24533Y-22737D01*
X24708Y-22809D01*
X24897Y-22809D01*
X25071Y-22737D01*
X25205Y-22604D01*
X25278Y-22429D01*
X25278Y-22240D01*
X25206Y-22065D01*
X25072Y-21932D01*
X25053Y-21924D01*
X25053Y-21048D01*
X25102Y-21028D01*
X25252Y-20879D01*
X25333Y-20684D01*
X25333Y-20473D01*
X25333Y-20902D01*
X25314Y-20902D01*
X25241Y-20932D01*
X25184Y-20988D01*
X25154Y-21062D01*
X25154Y-21141D01*
X25154Y-21614D01*
X25184Y-21687D01*
X25240Y-21744D01*
X25314Y-21774D01*
X25393Y-21774D01*
X25737Y-21774D01*
X25737Y-22884D01*
X25990Y-22884D01*
X25990Y-23701D01*
X26021Y-23774D01*
X26077Y-23830D01*
X26150Y-23861D01*
X26230Y-23861D01*
X26486Y-23861D01*
X26505Y-23853D01*
X26525Y-23861D01*
X26604Y-23861D01*
X26860Y-23861D01*
X26881Y-23852D01*
X26895Y-23921D01*
X26949Y-24002D01*
X27164Y-24218D01*
X27164Y-24218D01*
G37*
G54D27*
X27164Y-24218D02*
X26040Y-24218D01*
X25270Y-23448D01*
X25278Y-23429D01*
X25278Y-23240D01*
X25206Y-23065D01*
X25072Y-22932D01*
X24898Y-22859D01*
X24709Y-22859D01*
X24534Y-22931D01*
X24400Y-23065D01*
X24328Y-23239D01*
X24328Y-23428D01*
X24400Y-23603D01*
X24533Y-23737D01*
X24708Y-23809D01*
X24897Y-23809D01*
X24916Y-23801D01*
X25760Y-24645D01*
X25841Y-24699D01*
X25937Y-24718D01*
X26604Y-24718D01*
X26508Y-24754D01*
X26418Y-24994D01*
X26428Y-25250D01*
X26508Y-25442D01*
X26613Y-25481D01*
X26996Y-25098D01*
X26990Y-25092D01*
X27061Y-25022D01*
X27066Y-25027D01*
X27072Y-25022D01*
X27143Y-25092D01*
X27137Y-25098D01*
X27143Y-25103D01*
X27072Y-25174D01*
X27066Y-25169D01*
X26683Y-25552D01*
X26722Y-25657D01*
X26837Y-25700D01*
X26254Y-25700D01*
X26254Y-25700D01*
X26235Y-25703D01*
X26159Y-25719D01*
X26077Y-25773D01*
X26077Y-25773D01*
X25453Y-26398D01*
X25398Y-26479D01*
X25379Y-26574D01*
X25379Y-29542D01*
X25155Y-29766D01*
X25155Y-27958D01*
X25155Y-25202D01*
X25146Y-24946D01*
X25066Y-24754D01*
X24961Y-24715D01*
X24890Y-24786D01*
X24578Y-25098D01*
X24961Y-25481D01*
X25066Y-25442D01*
X25155Y-25202D01*
X25155Y-27958D01*
X25146Y-27702D01*
X25066Y-27510D01*
X24961Y-27471D01*
X24578Y-27854D01*
X24961Y-28237D01*
X25066Y-28198D01*
X25155Y-27958D01*
X25155Y-29766D01*
X25047Y-29874D01*
X25101Y-29744D01*
X25101Y-29508D01*
X25011Y-29290D01*
X24890Y-29169D01*
X24844Y-29122D01*
X24626Y-29032D01*
X24390Y-29032D01*
X24172Y-29122D01*
X24065Y-29228D01*
X24065Y-28338D01*
X24079Y-28353D01*
X24124Y-28308D01*
X24163Y-28413D01*
X24403Y-28502D01*
X24659Y-28492D01*
X24852Y-28413D01*
X24890Y-28308D01*
X24507Y-27925D01*
X24502Y-27930D01*
X24431Y-27859D01*
X24437Y-27854D01*
X24431Y-27848D01*
X24502Y-27778D01*
X24507Y-27783D01*
X24890Y-27400D01*
X24870Y-27346D01*
X25010Y-27206D01*
X25101Y-26988D01*
X25101Y-26752D01*
X25011Y-26534D01*
X24890Y-26413D01*
X24844Y-26367D01*
X24626Y-26276D01*
X24390Y-26276D01*
X24172Y-26366D01*
X24065Y-26472D01*
X24065Y-25583D01*
X24079Y-25597D01*
X24124Y-25552D01*
X24163Y-25657D01*
X24403Y-25746D01*
X24659Y-25736D01*
X24852Y-25657D01*
X24890Y-25552D01*
X24507Y-25169D01*
X24502Y-25174D01*
X24431Y-25103D01*
X24437Y-25098D01*
X24431Y-25092D01*
X24502Y-25022D01*
X24507Y-25027D01*
X24890Y-24644D01*
X24852Y-24539D01*
X24612Y-24450D01*
X24356Y-24459D01*
X24163Y-24539D01*
X24124Y-24644D01*
X24079Y-24599D01*
X24065Y-24613D01*
X24065Y-16979D01*
X25154Y-16979D01*
X25154Y-17854D01*
X25184Y-17928D01*
X25240Y-17984D01*
X25314Y-18014D01*
X25393Y-18014D01*
X25737Y-18014D01*
X25737Y-18540D01*
X25314Y-18540D01*
X25241Y-18570D01*
X25184Y-18626D01*
X25154Y-18700D01*
X25154Y-18779D01*
X25154Y-19094D01*
X25172Y-19138D01*
X25140Y-19171D01*
X25109Y-19072D01*
X24892Y-18994D01*
X24661Y-19004D01*
X24497Y-19072D01*
X24466Y-19171D01*
X24803Y-19508D01*
X24808Y-19502D01*
X24879Y-19573D01*
X24873Y-19578D01*
X25210Y-19915D01*
X25309Y-19884D01*
X25387Y-19667D01*
X25377Y-19437D01*
X25309Y-19272D01*
X25210Y-19241D01*
X25234Y-19218D01*
X25240Y-19224D01*
X25314Y-19255D01*
X25393Y-19255D01*
X25737Y-19255D01*
X25737Y-20902D01*
X25387Y-20902D01*
X25333Y-20902D01*
X25333Y-20473D01*
X25252Y-20278D01*
X25103Y-20129D01*
X25052Y-20108D01*
X25109Y-20084D01*
X25140Y-19986D01*
X24803Y-19649D01*
X24732Y-19720D01*
X24732Y-19578D01*
X24395Y-19241D01*
X24297Y-19272D01*
X24218Y-19489D01*
X24228Y-19720D01*
X24297Y-19884D01*
X24395Y-19915D01*
X24732Y-19578D01*
X24732Y-19720D01*
X24466Y-19986D01*
X24497Y-20084D01*
X24557Y-20106D01*
X24503Y-20129D01*
X24354Y-20278D01*
X24273Y-20472D01*
X24273Y-20683D01*
X24353Y-20878D01*
X24502Y-21027D01*
X24553Y-21048D01*
X24553Y-21923D01*
X24534Y-21931D01*
X24400Y-22065D01*
X24328Y-22239D01*
X24328Y-22428D01*
X24400Y-22603D01*
X24533Y-22737D01*
X24708Y-22809D01*
X24897Y-22809D01*
X25071Y-22737D01*
X25205Y-22604D01*
X25278Y-22429D01*
X25278Y-22240D01*
X25206Y-22065D01*
X25072Y-21932D01*
X25053Y-21924D01*
X25053Y-21048D01*
X25102Y-21028D01*
X25252Y-20879D01*
X25333Y-20684D01*
X25333Y-20473D01*
X25333Y-20902D01*
X25314Y-20902D01*
X25241Y-20932D01*
X25184Y-20988D01*
X25154Y-21062D01*
X25154Y-21141D01*
X25154Y-21614D01*
X25184Y-21687D01*
X25240Y-21744D01*
X25314Y-21774D01*
X25393Y-21774D01*
X25737Y-21774D01*
X25737Y-22884D01*
X25990Y-22884D01*
X25990Y-23701D01*
X26021Y-23774D01*
X26077Y-23830D01*
X26150Y-23861D01*
X26230Y-23861D01*
X26486Y-23861D01*
X26505Y-23853D01*
X26525Y-23861D01*
X26604Y-23861D01*
X26860Y-23861D01*
X26881Y-23852D01*
X26895Y-23921D01*
X26949Y-24002D01*
X27164Y-24218D01*
G54D10*
G36*
X28279Y-31413D02*
X27789Y-31413D01*
X27745Y-31431D01*
X27641Y-31431D01*
X27620Y-31452D01*
X27588Y-31452D01*
X27578Y-31454D01*
X27578Y-31454D01*
X27493Y-31471D01*
X27412Y-31525D01*
X27257Y-31679D01*
X27257Y-30890D01*
X27279Y-30869D01*
X27279Y-31023D01*
X27300Y-31130D01*
X27361Y-31221D01*
X27409Y-31270D01*
X27500Y-31331D01*
X27500Y-31331D01*
X27518Y-31334D01*
X27578Y-31346D01*
X27578Y-31346D01*
X27607Y-31352D01*
X27768Y-31352D01*
X27788Y-31360D01*
X27868Y-31361D01*
X28279Y-31361D01*
X28279Y-31413D01*
X28279Y-31413D01*
G37*
G54D27*
X28279Y-31413D02*
X27789Y-31413D01*
X27745Y-31431D01*
X27641Y-31431D01*
X27620Y-31452D01*
X27588Y-31452D01*
X27578Y-31454D01*
X27578Y-31454D01*
X27493Y-31471D01*
X27412Y-31525D01*
X27257Y-31679D01*
X27257Y-30890D01*
X27279Y-30869D01*
X27279Y-31023D01*
X27300Y-31130D01*
X27361Y-31221D01*
X27409Y-31270D01*
X27500Y-31331D01*
X27500Y-31331D01*
X27518Y-31334D01*
X27578Y-31346D01*
X27578Y-31346D01*
X27607Y-31352D01*
X27768Y-31352D01*
X27788Y-31360D01*
X27868Y-31361D01*
X28279Y-31361D01*
X28279Y-31413D01*
G54D10*
G36*
X28717Y-33175D02*
X28673Y-33175D01*
X28673Y-33175D01*
X28654Y-33178D01*
X28577Y-33194D01*
X28496Y-33248D01*
X28496Y-33248D01*
X28372Y-33371D01*
X28340Y-33358D01*
X28141Y-33358D01*
X27957Y-33434D01*
X27816Y-33574D01*
X27740Y-33758D01*
X27740Y-33957D01*
X27816Y-34141D01*
X27834Y-34159D01*
X25291Y-34159D01*
X25333Y-34040D01*
X25321Y-33831D01*
X25273Y-33714D01*
X25644Y-33714D01*
X25886Y-33956D01*
X25886Y-33956D01*
X25967Y-34010D01*
X25967Y-34010D01*
X26043Y-34025D01*
X26062Y-34029D01*
X26062Y-34029D01*
X26062Y-34029D01*
X26614Y-34029D01*
X26709Y-34010D01*
X26790Y-33956D01*
X27460Y-33287D01*
X27514Y-33205D01*
X27533Y-33110D01*
X27533Y-32111D01*
X27628Y-32016D01*
X27628Y-32145D01*
X27658Y-32219D01*
X27715Y-32275D01*
X27788Y-32305D01*
X27868Y-32306D01*
X28493Y-32306D01*
X28493Y-32727D01*
X28717Y-32727D01*
X28717Y-33175D01*
X28717Y-33175D01*
G37*
G54D27*
X28717Y-33175D02*
X28673Y-33175D01*
X28673Y-33175D01*
X28654Y-33178D01*
X28577Y-33194D01*
X28496Y-33248D01*
X28496Y-33248D01*
X28372Y-33371D01*
X28340Y-33358D01*
X28141Y-33358D01*
X27957Y-33434D01*
X27816Y-33574D01*
X27740Y-33758D01*
X27740Y-33957D01*
X27816Y-34141D01*
X27834Y-34159D01*
X25291Y-34159D01*
X25333Y-34040D01*
X25321Y-33831D01*
X25273Y-33714D01*
X25644Y-33714D01*
X25886Y-33956D01*
X25886Y-33956D01*
X25967Y-34010D01*
X25967Y-34010D01*
X26043Y-34025D01*
X26062Y-34029D01*
X26062Y-34029D01*
X26062Y-34029D01*
X26614Y-34029D01*
X26709Y-34010D01*
X26790Y-33956D01*
X27460Y-33287D01*
X27514Y-33205D01*
X27533Y-33110D01*
X27533Y-32111D01*
X27628Y-32016D01*
X27628Y-32145D01*
X27658Y-32219D01*
X27715Y-32275D01*
X27788Y-32305D01*
X27868Y-32306D01*
X28493Y-32306D01*
X28493Y-32727D01*
X28717Y-32727D01*
X28717Y-33175D01*
G54D10*
G36*
X31738Y-29516D02*
X31555Y-29516D01*
X31481Y-29547D01*
X31425Y-29603D01*
X31394Y-29677D01*
X31394Y-29756D01*
X31394Y-29845D01*
X29559Y-29845D01*
X29452Y-29866D01*
X29422Y-29886D01*
X29361Y-29927D01*
X29126Y-30162D01*
X28815Y-30162D01*
X28815Y-29999D01*
X28803Y-29970D01*
X28815Y-29940D01*
X28815Y-29861D01*
X28815Y-29684D01*
X28785Y-29610D01*
X28729Y-29554D01*
X28655Y-29524D01*
X28576Y-29523D01*
X27789Y-29523D01*
X27715Y-29554D01*
X27707Y-29562D01*
X27667Y-29562D01*
X27667Y-29562D01*
X27660Y-29563D01*
X27660Y-29508D01*
X27570Y-29290D01*
X27449Y-29169D01*
X27449Y-28308D01*
X27066Y-27925D01*
X26996Y-27995D01*
X26996Y-27854D01*
X26613Y-27471D01*
X26508Y-27510D01*
X26418Y-27750D01*
X26428Y-28006D01*
X26508Y-28198D01*
X26613Y-28237D01*
X26996Y-27854D01*
X26996Y-27995D01*
X26683Y-28308D01*
X26722Y-28413D01*
X26962Y-28502D01*
X27218Y-28492D01*
X27411Y-28413D01*
X27449Y-28308D01*
X27449Y-29169D01*
X27403Y-29122D01*
X27185Y-29032D01*
X26949Y-29032D01*
X26731Y-29122D01*
X26563Y-29289D01*
X26473Y-29507D01*
X26473Y-29743D01*
X26508Y-29830D01*
X25644Y-30694D01*
X25327Y-30694D01*
X25333Y-30678D01*
X25321Y-30469D01*
X25271Y-30349D01*
X25294Y-30334D01*
X25806Y-29822D01*
X25806Y-29822D01*
X25806Y-29822D01*
X25860Y-29741D01*
X25860Y-29741D01*
X25879Y-29645D01*
X25879Y-26678D01*
X26358Y-26200D01*
X28436Y-26200D01*
X28409Y-26295D01*
X28724Y-26610D01*
X28729Y-26604D01*
X28800Y-26675D01*
X28795Y-26681D01*
X28800Y-26686D01*
X28729Y-26757D01*
X28724Y-26751D01*
X28456Y-27019D01*
X28412Y-27038D01*
X28278Y-27171D01*
X28248Y-27244D01*
X28100Y-27096D01*
X28103Y-27095D01*
X28237Y-26962D01*
X28238Y-26958D01*
X28243Y-26968D01*
X28338Y-26996D01*
X28653Y-26681D01*
X28338Y-26365D01*
X28243Y-26393D01*
X28233Y-26420D01*
X28104Y-26290D01*
X27929Y-26217D01*
X27740Y-26217D01*
X27565Y-26289D01*
X27446Y-26409D01*
X27403Y-26367D01*
X27185Y-26276D01*
X26949Y-26276D01*
X26731Y-26366D01*
X26563Y-26533D01*
X26473Y-26751D01*
X26473Y-26987D01*
X26563Y-27205D01*
X26703Y-27346D01*
X26683Y-27400D01*
X27066Y-27783D01*
X27072Y-27778D01*
X27143Y-27848D01*
X27137Y-27854D01*
X27520Y-28237D01*
X27625Y-28198D01*
X27714Y-27958D01*
X27714Y-27942D01*
X28719Y-28948D01*
X28719Y-29458D01*
X28749Y-29532D01*
X28806Y-29588D01*
X28879Y-29618D01*
X28959Y-29619D01*
X29136Y-29619D01*
X29163Y-29607D01*
X29189Y-29618D01*
X29269Y-29619D01*
X29446Y-29619D01*
X29478Y-29605D01*
X29509Y-29618D01*
X29589Y-29619D01*
X29766Y-29619D01*
X29793Y-29607D01*
X29819Y-29618D01*
X29899Y-29619D01*
X30076Y-29619D01*
X30103Y-29607D01*
X30129Y-29618D01*
X30209Y-29619D01*
X30386Y-29619D01*
X30418Y-29605D01*
X30449Y-29618D01*
X30529Y-29619D01*
X30706Y-29619D01*
X30738Y-29605D01*
X30769Y-29618D01*
X30849Y-29619D01*
X31026Y-29619D01*
X31058Y-29605D01*
X31089Y-29618D01*
X31169Y-29619D01*
X31346Y-29619D01*
X31419Y-29588D01*
X31476Y-29532D01*
X31506Y-29458D01*
X31506Y-29379D01*
X31506Y-28592D01*
X31476Y-28518D01*
X31468Y-28510D01*
X31468Y-28346D01*
X31738Y-28616D01*
X31738Y-29516D01*
X31738Y-29516D01*
G37*
G54D27*
X31738Y-29516D02*
X31555Y-29516D01*
X31481Y-29547D01*
X31425Y-29603D01*
X31394Y-29677D01*
X31394Y-29756D01*
X31394Y-29845D01*
X29559Y-29845D01*
X29452Y-29866D01*
X29422Y-29886D01*
X29361Y-29927D01*
X29126Y-30162D01*
X28815Y-30162D01*
X28815Y-29999D01*
X28803Y-29970D01*
X28815Y-29940D01*
X28815Y-29861D01*
X28815Y-29684D01*
X28785Y-29610D01*
X28729Y-29554D01*
X28655Y-29524D01*
X28576Y-29523D01*
X27789Y-29523D01*
X27715Y-29554D01*
X27707Y-29562D01*
X27667Y-29562D01*
X27667Y-29562D01*
X27660Y-29563D01*
X27660Y-29508D01*
X27570Y-29290D01*
X27449Y-29169D01*
X27449Y-28308D01*
X27066Y-27925D01*
X26996Y-27995D01*
X26996Y-27854D01*
X26613Y-27471D01*
X26508Y-27510D01*
X26418Y-27750D01*
X26428Y-28006D01*
X26508Y-28198D01*
X26613Y-28237D01*
X26996Y-27854D01*
X26996Y-27995D01*
X26683Y-28308D01*
X26722Y-28413D01*
X26962Y-28502D01*
X27218Y-28492D01*
X27411Y-28413D01*
X27449Y-28308D01*
X27449Y-29169D01*
X27403Y-29122D01*
X27185Y-29032D01*
X26949Y-29032D01*
X26731Y-29122D01*
X26563Y-29289D01*
X26473Y-29507D01*
X26473Y-29743D01*
X26508Y-29830D01*
X25644Y-30694D01*
X25327Y-30694D01*
X25333Y-30678D01*
X25321Y-30469D01*
X25271Y-30349D01*
X25294Y-30334D01*
X25806Y-29822D01*
X25806Y-29822D01*
X25806Y-29822D01*
X25860Y-29741D01*
X25860Y-29741D01*
X25879Y-29645D01*
X25879Y-26678D01*
X26358Y-26200D01*
X28436Y-26200D01*
X28409Y-26295D01*
X28724Y-26610D01*
X28729Y-26604D01*
X28800Y-26675D01*
X28795Y-26681D01*
X28800Y-26686D01*
X28729Y-26757D01*
X28724Y-26751D01*
X28456Y-27019D01*
X28412Y-27038D01*
X28278Y-27171D01*
X28248Y-27244D01*
X28100Y-27096D01*
X28103Y-27095D01*
X28237Y-26962D01*
X28238Y-26958D01*
X28243Y-26968D01*
X28338Y-26996D01*
X28653Y-26681D01*
X28338Y-26365D01*
X28243Y-26393D01*
X28233Y-26420D01*
X28104Y-26290D01*
X27929Y-26217D01*
X27740Y-26217D01*
X27565Y-26289D01*
X27446Y-26409D01*
X27403Y-26367D01*
X27185Y-26276D01*
X26949Y-26276D01*
X26731Y-26366D01*
X26563Y-26533D01*
X26473Y-26751D01*
X26473Y-26987D01*
X26563Y-27205D01*
X26703Y-27346D01*
X26683Y-27400D01*
X27066Y-27783D01*
X27072Y-27778D01*
X27143Y-27848D01*
X27137Y-27854D01*
X27520Y-28237D01*
X27625Y-28198D01*
X27714Y-27958D01*
X27714Y-27942D01*
X28719Y-28948D01*
X28719Y-29458D01*
X28749Y-29532D01*
X28806Y-29588D01*
X28879Y-29618D01*
X28959Y-29619D01*
X29136Y-29619D01*
X29163Y-29607D01*
X29189Y-29618D01*
X29269Y-29619D01*
X29446Y-29619D01*
X29478Y-29605D01*
X29509Y-29618D01*
X29589Y-29619D01*
X29766Y-29619D01*
X29793Y-29607D01*
X29819Y-29618D01*
X29899Y-29619D01*
X30076Y-29619D01*
X30103Y-29607D01*
X30129Y-29618D01*
X30209Y-29619D01*
X30386Y-29619D01*
X30418Y-29605D01*
X30449Y-29618D01*
X30529Y-29619D01*
X30706Y-29619D01*
X30738Y-29605D01*
X30769Y-29618D01*
X30849Y-29619D01*
X31026Y-29619D01*
X31058Y-29605D01*
X31089Y-29618D01*
X31169Y-29619D01*
X31346Y-29619D01*
X31419Y-29588D01*
X31476Y-29532D01*
X31506Y-29458D01*
X31506Y-29379D01*
X31506Y-28592D01*
X31476Y-28518D01*
X31468Y-28510D01*
X31468Y-28346D01*
X31738Y-28616D01*
X31738Y-29516D01*
G54D10*
G36*
X32045Y-31096D02*
X31555Y-31096D01*
X31499Y-31119D01*
X31407Y-31119D01*
X31344Y-31182D01*
X31344Y-31213D01*
X31359Y-31249D01*
X28865Y-31249D01*
X28865Y-31249D01*
X28827Y-31157D01*
X28815Y-31145D01*
X28815Y-31121D01*
X28815Y-30999D01*
X28827Y-30987D01*
X28865Y-30895D01*
X28865Y-30864D01*
X28803Y-30801D01*
X28698Y-30801D01*
X28655Y-30784D01*
X28576Y-30783D01*
X28164Y-30783D01*
X28164Y-30731D01*
X28655Y-30731D01*
X28675Y-30722D01*
X29242Y-30722D01*
X29349Y-30701D01*
X29349Y-30701D01*
X29440Y-30640D01*
X29675Y-30405D01*
X31394Y-30405D01*
X31394Y-30573D01*
X31405Y-30600D01*
X31394Y-30627D01*
X31394Y-30706D01*
X31394Y-30833D01*
X31382Y-30845D01*
X31344Y-30937D01*
X31344Y-30968D01*
X31407Y-31031D01*
X31524Y-31031D01*
X31554Y-31043D01*
X31634Y-31044D01*
X32045Y-31044D01*
X32045Y-31096D01*
X32045Y-31096D01*
G37*
G54D27*
X32045Y-31096D02*
X31555Y-31096D01*
X31499Y-31119D01*
X31407Y-31119D01*
X31344Y-31182D01*
X31344Y-31213D01*
X31359Y-31249D01*
X28865Y-31249D01*
X28865Y-31249D01*
X28827Y-31157D01*
X28815Y-31145D01*
X28815Y-31121D01*
X28815Y-30999D01*
X28827Y-30987D01*
X28865Y-30895D01*
X28865Y-30864D01*
X28803Y-30801D01*
X28698Y-30801D01*
X28655Y-30784D01*
X28576Y-30783D01*
X28164Y-30783D01*
X28164Y-30731D01*
X28655Y-30731D01*
X28675Y-30722D01*
X29242Y-30722D01*
X29349Y-30701D01*
X29349Y-30701D01*
X29440Y-30640D01*
X29675Y-30405D01*
X31394Y-30405D01*
X31394Y-30573D01*
X31405Y-30600D01*
X31394Y-30627D01*
X31394Y-30706D01*
X31394Y-30833D01*
X31382Y-30845D01*
X31344Y-30937D01*
X31344Y-30968D01*
X31407Y-31031D01*
X31524Y-31031D01*
X31554Y-31043D01*
X31634Y-31044D01*
X32045Y-31044D01*
X32045Y-31096D01*
G54D10*
G36*
X33020Y-25146D02*
X32616Y-25146D01*
X32616Y-21229D01*
X32605Y-21020D01*
X32547Y-20880D01*
X32454Y-20856D01*
X32383Y-20927D01*
X32157Y-21153D01*
X32454Y-21450D01*
X32547Y-21426D01*
X32616Y-21229D01*
X32616Y-25146D01*
X32518Y-25146D01*
X32518Y-24786D01*
X32518Y-24549D01*
X32456Y-24487D01*
X32018Y-24487D01*
X32018Y-24924D01*
X32081Y-24987D01*
X32218Y-24987D01*
X32318Y-24986D01*
X32410Y-24948D01*
X32480Y-24878D01*
X32518Y-24786D01*
X32518Y-25146D01*
X31618Y-25146D01*
X31618Y-24986D01*
X31718Y-24987D01*
X31856Y-24987D01*
X31918Y-24924D01*
X31918Y-24487D01*
X31910Y-24487D01*
X31910Y-24387D01*
X31918Y-24387D01*
X31918Y-24379D01*
X32018Y-24379D01*
X32018Y-24387D01*
X32456Y-24387D01*
X32518Y-24324D01*
X32518Y-24087D01*
X32480Y-23995D01*
X32410Y-23925D01*
X32318Y-23887D01*
X32218Y-23886D01*
X32188Y-23886D01*
X32251Y-23861D01*
X32392Y-23720D01*
X32468Y-23536D01*
X32468Y-23337D01*
X32392Y-23154D01*
X32366Y-23128D01*
X32366Y-22545D01*
X32489Y-22422D01*
X32561Y-22248D01*
X32561Y-22059D01*
X32489Y-21884D01*
X32356Y-21751D01*
X32181Y-21678D01*
X32100Y-21678D01*
X32219Y-21672D01*
X32359Y-21614D01*
X32383Y-21521D01*
X32086Y-21224D01*
X31789Y-21521D01*
X31813Y-21614D01*
X31996Y-21678D01*
X31992Y-21678D01*
X31817Y-21750D01*
X31694Y-21873D01*
X28870Y-21873D01*
X28762Y-21894D01*
X28732Y-21914D01*
X28672Y-21955D01*
X28227Y-22400D01*
X28166Y-22491D01*
X28145Y-22595D01*
X28090Y-22595D01*
X27850Y-22595D01*
X27838Y-22583D01*
X27746Y-22545D01*
X27671Y-22545D01*
X27609Y-22607D01*
X27609Y-23178D01*
X27616Y-23178D01*
X27616Y-23278D01*
X27609Y-23278D01*
X27609Y-23286D01*
X27509Y-23286D01*
X27509Y-23278D01*
X27501Y-23278D01*
X27501Y-23178D01*
X27509Y-23178D01*
X27509Y-22607D01*
X27446Y-22545D01*
X27412Y-22545D01*
X27412Y-21112D01*
X31558Y-21112D01*
X31568Y-21286D01*
X31626Y-21426D01*
X31718Y-21450D01*
X32015Y-21153D01*
X32010Y-21147D01*
X32081Y-21077D01*
X32086Y-21082D01*
X32383Y-20785D01*
X32359Y-20692D01*
X32162Y-20623D01*
X31953Y-20634D01*
X31813Y-20692D01*
X31789Y-20785D01*
X31744Y-20740D01*
X31742Y-20741D01*
X31742Y-17660D01*
X31949Y-17660D01*
X32022Y-17630D01*
X32078Y-17574D01*
X32109Y-17500D01*
X32109Y-17421D01*
X32109Y-16979D01*
X33020Y-16979D01*
X33020Y-25146D01*
X33020Y-25146D01*
G37*
G54D27*
X33020Y-25146D02*
X32616Y-25146D01*
X32616Y-21229D01*
X32605Y-21020D01*
X32547Y-20880D01*
X32454Y-20856D01*
X32383Y-20927D01*
X32157Y-21153D01*
X32454Y-21450D01*
X32547Y-21426D01*
X32616Y-21229D01*
X32616Y-25146D01*
X32518Y-25146D01*
X32518Y-24786D01*
X32518Y-24549D01*
X32456Y-24487D01*
X32018Y-24487D01*
X32018Y-24924D01*
X32081Y-24987D01*
X32218Y-24987D01*
X32318Y-24986D01*
X32410Y-24948D01*
X32480Y-24878D01*
X32518Y-24786D01*
X32518Y-25146D01*
X31618Y-25146D01*
X31618Y-24986D01*
X31718Y-24987D01*
X31856Y-24987D01*
X31918Y-24924D01*
X31918Y-24487D01*
X31910Y-24487D01*
X31910Y-24387D01*
X31918Y-24387D01*
X31918Y-24379D01*
X32018Y-24379D01*
X32018Y-24387D01*
X32456Y-24387D01*
X32518Y-24324D01*
X32518Y-24087D01*
X32480Y-23995D01*
X32410Y-23925D01*
X32318Y-23887D01*
X32218Y-23886D01*
X32188Y-23886D01*
X32251Y-23861D01*
X32392Y-23720D01*
X32468Y-23536D01*
X32468Y-23337D01*
X32392Y-23154D01*
X32366Y-23128D01*
X32366Y-22545D01*
X32489Y-22422D01*
X32561Y-22248D01*
X32561Y-22059D01*
X32489Y-21884D01*
X32356Y-21751D01*
X32181Y-21678D01*
X32100Y-21678D01*
X32219Y-21672D01*
X32359Y-21614D01*
X32383Y-21521D01*
X32086Y-21224D01*
X31789Y-21521D01*
X31813Y-21614D01*
X31996Y-21678D01*
X31992Y-21678D01*
X31817Y-21750D01*
X31694Y-21873D01*
X28870Y-21873D01*
X28762Y-21894D01*
X28732Y-21914D01*
X28672Y-21955D01*
X28227Y-22400D01*
X28166Y-22491D01*
X28145Y-22595D01*
X28090Y-22595D01*
X27850Y-22595D01*
X27838Y-22583D01*
X27746Y-22545D01*
X27671Y-22545D01*
X27609Y-22607D01*
X27609Y-23178D01*
X27616Y-23178D01*
X27616Y-23278D01*
X27609Y-23278D01*
X27609Y-23286D01*
X27509Y-23286D01*
X27509Y-23278D01*
X27501Y-23278D01*
X27501Y-23178D01*
X27509Y-23178D01*
X27509Y-22607D01*
X27446Y-22545D01*
X27412Y-22545D01*
X27412Y-21112D01*
X31558Y-21112D01*
X31568Y-21286D01*
X31626Y-21426D01*
X31718Y-21450D01*
X32015Y-21153D01*
X32010Y-21147D01*
X32081Y-21077D01*
X32086Y-21082D01*
X32383Y-20785D01*
X32359Y-20692D01*
X32162Y-20623D01*
X31953Y-20634D01*
X31813Y-20692D01*
X31789Y-20785D01*
X31744Y-20740D01*
X31742Y-20741D01*
X31742Y-17660D01*
X31949Y-17660D01*
X32022Y-17630D01*
X32078Y-17574D01*
X32109Y-17500D01*
X32109Y-17421D01*
X32109Y-16979D01*
X33020Y-16979D01*
X33020Y-25146D01*
G54D10*
G36*
X33020Y-34871D02*
X32154Y-34871D01*
X32154Y-35228D01*
X32095Y-35085D01*
X31972Y-34962D01*
X31972Y-34370D01*
X31951Y-34262D01*
X31951Y-34262D01*
X31931Y-34232D01*
X31890Y-34172D01*
X31890Y-34172D01*
X31656Y-33937D01*
X31656Y-33764D01*
X31584Y-33589D01*
X31450Y-33455D01*
X31313Y-33399D01*
X31338Y-33399D01*
X31411Y-33368D01*
X31468Y-33312D01*
X31498Y-33238D01*
X31498Y-33159D01*
X31498Y-32727D01*
X33020Y-32727D01*
X33020Y-34871D01*
X33020Y-34871D01*
G37*
G54D27*
X33020Y-34871D02*
X32154Y-34871D01*
X32154Y-35228D01*
X32095Y-35085D01*
X31972Y-34962D01*
X31972Y-34370D01*
X31951Y-34262D01*
X31951Y-34262D01*
X31931Y-34232D01*
X31890Y-34172D01*
X31890Y-34172D01*
X31656Y-33937D01*
X31656Y-33764D01*
X31584Y-33589D01*
X31450Y-33455D01*
X31313Y-33399D01*
X31338Y-33399D01*
X31411Y-33368D01*
X31468Y-33312D01*
X31498Y-33238D01*
X31498Y-33159D01*
X31498Y-32727D01*
X33020Y-32727D01*
X33020Y-34871D01*
G54D10*
G36*
X33020Y-41930D02*
X32967Y-41800D01*
X32610Y-41443D01*
X32143Y-41249D01*
X31638Y-41248D01*
X31171Y-41442D01*
X30955Y-41657D01*
X30813Y-41799D01*
X30619Y-42265D01*
X30619Y-42771D01*
X30812Y-43238D01*
X30955Y-43382D01*
X31169Y-43596D01*
X31300Y-43650D01*
X30955Y-43650D01*
X30905Y-43650D01*
X25786Y-43650D01*
X25915Y-43597D01*
X26273Y-43240D01*
X26467Y-42773D01*
X26467Y-42268D01*
X26274Y-41800D01*
X25917Y-41443D01*
X25450Y-41249D01*
X24945Y-41248D01*
X24478Y-41442D01*
X24120Y-41799D01*
X24065Y-41930D01*
X24065Y-38879D01*
X24560Y-39373D01*
X24560Y-39546D01*
X24632Y-39721D01*
X24766Y-39855D01*
X24940Y-39927D01*
X25129Y-39927D01*
X25304Y-39855D01*
X25427Y-39732D01*
X27643Y-39732D01*
X27766Y-39855D01*
X27940Y-39927D01*
X28129Y-39927D01*
X28304Y-39855D01*
X28372Y-39787D01*
X28388Y-39826D01*
X28444Y-39882D01*
X28518Y-39913D01*
X28597Y-39913D01*
X29197Y-39913D01*
X29271Y-39883D01*
X29327Y-39826D01*
X29358Y-39753D01*
X29358Y-39750D01*
X29411Y-39804D01*
X29586Y-39876D01*
X29775Y-39876D01*
X29949Y-39804D01*
X30083Y-39670D01*
X30156Y-39496D01*
X30156Y-39307D01*
X30084Y-39132D01*
X29950Y-38999D01*
X29776Y-38926D01*
X29587Y-38926D01*
X29412Y-38998D01*
X29352Y-39058D01*
X29327Y-39000D01*
X29271Y-38943D01*
X29198Y-38913D01*
X29118Y-38913D01*
X28957Y-38913D01*
X29141Y-38837D01*
X29281Y-38696D01*
X29288Y-38680D01*
X29411Y-38804D01*
X29586Y-38876D01*
X29775Y-38876D01*
X29949Y-38804D01*
X30083Y-38670D01*
X30091Y-38651D01*
X30732Y-38651D01*
X30827Y-38632D01*
X30909Y-38578D01*
X30955Y-38531D01*
X31397Y-38090D01*
X31397Y-38090D01*
X31397Y-38090D01*
X31451Y-38009D01*
X31451Y-38009D01*
X31466Y-37932D01*
X31470Y-37913D01*
X31470Y-37913D01*
X31470Y-37913D01*
X31470Y-35776D01*
X31598Y-35829D01*
X31786Y-35829D01*
X31961Y-35757D01*
X32095Y-35623D01*
X32154Y-35480D01*
X32154Y-36315D01*
X32151Y-36325D01*
X32154Y-36390D01*
X32154Y-36861D01*
X32408Y-36861D01*
X32408Y-36862D01*
X32591Y-36926D01*
X32587Y-36926D01*
X32412Y-36998D01*
X32278Y-37132D01*
X32206Y-37306D01*
X32206Y-37495D01*
X32278Y-37670D01*
X32411Y-37804D01*
X32586Y-37876D01*
X32775Y-37876D01*
X32949Y-37804D01*
X33020Y-37733D01*
X33020Y-38069D01*
X32950Y-37999D01*
X32776Y-37926D01*
X32587Y-37926D01*
X32412Y-37998D01*
X32278Y-38132D01*
X32206Y-38306D01*
X32206Y-38495D01*
X32278Y-38670D01*
X32411Y-38804D01*
X32586Y-38876D01*
X32775Y-38876D01*
X32949Y-38804D01*
X33020Y-38733D01*
X33020Y-39069D01*
X32950Y-38999D01*
X32776Y-38926D01*
X32587Y-38926D01*
X32412Y-38998D01*
X32278Y-39132D01*
X32206Y-39306D01*
X32206Y-39495D01*
X32278Y-39670D01*
X32411Y-39804D01*
X32586Y-39876D01*
X32775Y-39876D01*
X32949Y-39804D01*
X33020Y-39733D01*
X33020Y-41930D01*
X33020Y-41930D01*
G37*
G54D27*
X33020Y-41930D02*
X32967Y-41800D01*
X32610Y-41443D01*
X32143Y-41249D01*
X31638Y-41248D01*
X31171Y-41442D01*
X30955Y-41657D01*
X30813Y-41799D01*
X30619Y-42265D01*
X30619Y-42771D01*
X30812Y-43238D01*
X30955Y-43382D01*
X31169Y-43596D01*
X31300Y-43650D01*
X30955Y-43650D01*
X30905Y-43650D01*
X25786Y-43650D01*
X25915Y-43597D01*
X26273Y-43240D01*
X26467Y-42773D01*
X26467Y-42268D01*
X26274Y-41800D01*
X25917Y-41443D01*
X25450Y-41249D01*
X24945Y-41248D01*
X24478Y-41442D01*
X24120Y-41799D01*
X24065Y-41930D01*
X24065Y-38879D01*
X24560Y-39373D01*
X24560Y-39546D01*
X24632Y-39721D01*
X24766Y-39855D01*
X24940Y-39927D01*
X25129Y-39927D01*
X25304Y-39855D01*
X25427Y-39732D01*
X27643Y-39732D01*
X27766Y-39855D01*
X27940Y-39927D01*
X28129Y-39927D01*
X28304Y-39855D01*
X28372Y-39787D01*
X28388Y-39826D01*
X28444Y-39882D01*
X28518Y-39913D01*
X28597Y-39913D01*
X29197Y-39913D01*
X29271Y-39883D01*
X29327Y-39826D01*
X29358Y-39753D01*
X29358Y-39750D01*
X29411Y-39804D01*
X29586Y-39876D01*
X29775Y-39876D01*
X29949Y-39804D01*
X30083Y-39670D01*
X30156Y-39496D01*
X30156Y-39307D01*
X30084Y-39132D01*
X29950Y-38999D01*
X29776Y-38926D01*
X29587Y-38926D01*
X29412Y-38998D01*
X29352Y-39058D01*
X29327Y-39000D01*
X29271Y-38943D01*
X29198Y-38913D01*
X29118Y-38913D01*
X28957Y-38913D01*
X29141Y-38837D01*
X29281Y-38696D01*
X29288Y-38680D01*
X29411Y-38804D01*
X29586Y-38876D01*
X29775Y-38876D01*
X29949Y-38804D01*
X30083Y-38670D01*
X30091Y-38651D01*
X30732Y-38651D01*
X30827Y-38632D01*
X30909Y-38578D01*
X30955Y-38531D01*
X31397Y-38090D01*
X31397Y-38090D01*
X31397Y-38090D01*
X31451Y-38009D01*
X31451Y-38009D01*
X31466Y-37932D01*
X31470Y-37913D01*
X31470Y-37913D01*
X31470Y-37913D01*
X31470Y-35776D01*
X31598Y-35829D01*
X31786Y-35829D01*
X31961Y-35757D01*
X32095Y-35623D01*
X32154Y-35480D01*
X32154Y-36315D01*
X32151Y-36325D01*
X32154Y-36390D01*
X32154Y-36861D01*
X32408Y-36861D01*
X32408Y-36862D01*
X32591Y-36926D01*
X32587Y-36926D01*
X32412Y-36998D01*
X32278Y-37132D01*
X32206Y-37306D01*
X32206Y-37495D01*
X32278Y-37670D01*
X32411Y-37804D01*
X32586Y-37876D01*
X32775Y-37876D01*
X32949Y-37804D01*
X33020Y-37733D01*
X33020Y-38069D01*
X32950Y-37999D01*
X32776Y-37926D01*
X32587Y-37926D01*
X32412Y-37998D01*
X32278Y-38132D01*
X32206Y-38306D01*
X32206Y-38495D01*
X32278Y-38670D01*
X32411Y-38804D01*
X32586Y-38876D01*
X32775Y-38876D01*
X32949Y-38804D01*
X33020Y-38733D01*
X33020Y-39069D01*
X32950Y-38999D01*
X32776Y-38926D01*
X32587Y-38926D01*
X32412Y-38998D01*
X32278Y-39132D01*
X32206Y-39306D01*
X32206Y-39495D01*
X32278Y-39670D01*
X32411Y-39804D01*
X32586Y-39876D01*
X32775Y-39876D01*
X32949Y-39804D01*
X33020Y-39733D01*
X33020Y-41930D01*
M02*
