G04 (created by PCBNEW (2013-07-07 BZR 4022)-stable) date 2015/01/28 12:10:21*
%MOIN*%
G04 Gerber Fmt 3.4, Leading zero omitted, Abs format*
%FSLAX34Y34*%
G01*
G70*
G90*
G04 APERTURE LIST*
%ADD10C,0.00590551*%
%ADD11R,0.06X0.06*%
%ADD12C,0.06*%
%ADD13C,0.066*%
%ADD14C,0.056*%
%ADD15R,0.055X0.055*%
%ADD16C,0.055*%
%ADD17C,0.0787402*%
%ADD18C,0.016*%
%ADD19C,0.01*%
G04 APERTURE END LIST*
G54D10*
G54D11*
X30724Y-25681D03*
G54D12*
X30724Y-26681D03*
X29724Y-25681D03*
X29724Y-26681D03*
X28724Y-25681D03*
X28724Y-26681D03*
G54D11*
X31968Y-24437D03*
G54D12*
X31968Y-23437D03*
G54D13*
X24803Y-20578D03*
X24803Y-19578D03*
G54D14*
X26377Y-31283D03*
X26377Y-33283D03*
G54D15*
X25035Y-36452D03*
G54D16*
X25035Y-37452D03*
X25035Y-38452D03*
X25035Y-39452D03*
X28035Y-39452D03*
X28035Y-38452D03*
X28035Y-37452D03*
X28035Y-36452D03*
G54D15*
X29681Y-35401D03*
G54D16*
X29681Y-36401D03*
X29681Y-37401D03*
X29681Y-38401D03*
X29681Y-39401D03*
X32681Y-39401D03*
X32681Y-38401D03*
X32681Y-37401D03*
X32681Y-36401D03*
X32681Y-35401D03*
X24803Y-32964D03*
X24803Y-33964D03*
X24803Y-31602D03*
X24803Y-30602D03*
X31929Y-25681D03*
X31929Y-26681D03*
X32086Y-21153D03*
X32086Y-22153D03*
G54D17*
X27066Y-27854D03*
X27066Y-29625D03*
X24507Y-29625D03*
X24507Y-27854D03*
X27066Y-25098D03*
X27066Y-26870D03*
X24507Y-26870D03*
X24507Y-25098D03*
G54D16*
X26484Y-35314D03*
X25484Y-35314D03*
X27216Y-35314D03*
X28216Y-35314D03*
X24803Y-22334D03*
X24803Y-23334D03*
G54D11*
X28858Y-39413D03*
G54D12*
X28858Y-38413D03*
X28858Y-37413D03*
X28858Y-36413D03*
G54D11*
X29240Y-33858D03*
G54D12*
X28240Y-33858D03*
G54D16*
X30393Y-36929D03*
X31751Y-36929D03*
X27795Y-28818D03*
X27795Y-32677D03*
X25196Y-27401D03*
X26377Y-27401D03*
X32795Y-25039D03*
X32047Y-33740D03*
X30150Y-24150D03*
X28681Y-27440D03*
X27795Y-25511D03*
X27834Y-26692D03*
X29400Y-24300D03*
X28200Y-24350D03*
X31350Y-27625D03*
X29700Y-27625D03*
X31181Y-33858D03*
X30905Y-24291D03*
X31692Y-35354D03*
X30433Y-35314D03*
G54D18*
X30393Y-36929D02*
X31751Y-36929D01*
X27795Y-32677D02*
X27795Y-28818D01*
X25196Y-27401D02*
X26377Y-27401D01*
X24507Y-27854D02*
X27066Y-27854D01*
X24507Y-25098D02*
X27066Y-25098D01*
X32795Y-25039D02*
X32795Y-26692D01*
X32795Y-26692D02*
X32047Y-27440D01*
X32047Y-27440D02*
X32047Y-33740D01*
G54D19*
X29955Y-24794D02*
X30150Y-24600D01*
X30150Y-24600D02*
X30150Y-24150D01*
X29955Y-24794D02*
X29705Y-24794D01*
X28926Y-24794D02*
X29705Y-24794D01*
X28267Y-25452D02*
X28926Y-24794D01*
X28267Y-27027D02*
X28267Y-25452D01*
X28681Y-27440D02*
X28267Y-27027D01*
X29705Y-24794D02*
X29713Y-24794D01*
X27795Y-26614D02*
X27795Y-25511D01*
X27795Y-26653D02*
X27795Y-26614D01*
X27834Y-26692D02*
X27795Y-26653D01*
X28250Y-24300D02*
X29400Y-24300D01*
X28200Y-24350D02*
X28250Y-24300D01*
X31350Y-27625D02*
X29700Y-27625D01*
G54D18*
X29212Y-31889D02*
X31181Y-33858D01*
X29212Y-25393D02*
X29212Y-31535D01*
X29566Y-25039D02*
X29212Y-25393D01*
X30157Y-25039D02*
X29566Y-25039D01*
X30905Y-24291D02*
X30157Y-25039D01*
X30472Y-35354D02*
X31692Y-35354D01*
X30433Y-35314D02*
X30472Y-35354D01*
X29212Y-31535D02*
X29212Y-31889D01*
M02*
